<?xml version="1.0" encoding="UTF-8" standalone="no"?>
<!-- Created with Inkscape (http://www.inkscape.org/) -->

<svg
   xmlns:dc="http://purl.org/dc/elements/1.1/"
   xmlns:cc="http://creativecommons.org/ns#"
   xmlns:rdf="http://www.w3.org/1999/02/22-rdf-syntax-ns#"
   xmlns:svg="http://www.w3.org/2000/svg"
   xmlns="http://www.w3.org/2000/svg"
   xmlns:sodipodi="http://sodipodi.sourceforge.net/DTD/sodipodi-0.dtd"
   xmlns:inkscape="http://www.inkscape.org/namespaces/inkscape"
   width="1000"
   height="486.63443"
   id="svg2"
   version="1.1"
   inkscape:version="0.48.2 r9819"
   sodipodi:docname="New document 1">
  <defs
     id="defs4">
    <clipPath
       id="clipPath3877"
       clipPathUnits="userSpaceOnUse">
      <path
         id="path3879"
         d="m 0,79.901 0,-80.52031 164.76,0 0,80.52031"
         inkscape:connector-curvature="0" />
    </clipPath>
    <clipPath
       id="clipPath3867"
       clipPathUnits="userSpaceOnUse">
      <path
         id="path3869"
         d="m 0,79.901 0,-80.52031 164.76,0 0,80.52031"
         inkscape:connector-curvature="0" />
    </clipPath>
    <clipPath
       id="clipPath3857"
       clipPathUnits="userSpaceOnUse">
      <path
         id="path3859"
         d="m 0,79.901 0,-80.52031 164.76,0 0,80.52031"
         inkscape:connector-curvature="0" />
    </clipPath>
    <clipPath
       id="clipPath3847"
       clipPathUnits="userSpaceOnUse">
      <path
         id="path3849"
         d="m 0,79.901 0,-80.52031 164.76,0 0,80.52031"
         inkscape:connector-curvature="0" />
    </clipPath>
    <clipPath
       id="clipPath3837"
       clipPathUnits="userSpaceOnUse">
      <path
         id="path3839"
         d="m 0,79.901 0,-80.52031 164.76,0 0,80.52031"
         inkscape:connector-curvature="0" />
    </clipPath>
    <clipPath
       id="clipPath3827"
       clipPathUnits="userSpaceOnUse">
      <path
         id="path3829"
         d="m 0,79.901 0,-80.52031 164.76,0 0,80.52031"
         inkscape:connector-curvature="0" />
    </clipPath>
    <clipPath
       id="clipPath3817"
       clipPathUnits="userSpaceOnUse">
      <path
         id="path3819"
         d="m 0,79.901 0,-80.52031 164.76,0 0,80.52031"
         inkscape:connector-curvature="0" />
    </clipPath>
    <clipPath
       id="clipPath3807"
       clipPathUnits="userSpaceOnUse">
      <path
         id="path3809"
         d="m 0,79.901 0,-80.52031 164.76,0 0,80.52031"
         inkscape:connector-curvature="0" />
    </clipPath>
    <clipPath
       id="clipPath3797"
       clipPathUnits="userSpaceOnUse">
      <path
         id="path3799"
         d="m 0,79.901 0,-80.52031 164.76,0 0,80.52031"
         inkscape:connector-curvature="0" />
    </clipPath>
    <clipPath
       id="clipPath3787"
       clipPathUnits="userSpaceOnUse">
      <path
         id="path3789"
         d="m 0,79.901 0,-80.52031 164.76,0 0,80.52031"
         inkscape:connector-curvature="0" />
    </clipPath>
    <clipPath
       id="clipPath3777"
       clipPathUnits="userSpaceOnUse">
      <path
         id="path3779"
         d="m 0,79.901 0,-80.52031 164.76,0 0,80.52031"
         inkscape:connector-curvature="0" />
    </clipPath>
    <clipPath
       id="clipPath3767"
       clipPathUnits="userSpaceOnUse">
      <path
         id="path3769"
         d="m 0,79.901 0,-80.52031 164.76,0 0,80.52031"
         inkscape:connector-curvature="0" />
    </clipPath>
    <clipPath
       id="clipPath3757"
       clipPathUnits="userSpaceOnUse">
      <path
         id="path3759"
         d="m 0,79.901 0,-80.52031 164.76,0 0,80.52031"
         inkscape:connector-curvature="0" />
    </clipPath>
    <clipPath
       id="clipPath3747"
       clipPathUnits="userSpaceOnUse">
      <path
         id="path3749"
         d="m 0,79.901 0,-80.52031 164.76,0 0,80.52031"
         inkscape:connector-curvature="0" />
    </clipPath>
    <clipPath
       id="clipPath3737"
       clipPathUnits="userSpaceOnUse">
      <path
         id="path3739"
         d="m 0,79.901 0,-80.52031 164.76,0 0,80.52031"
         inkscape:connector-curvature="0" />
    </clipPath>
    <clipPath
       id="clipPath3727"
       clipPathUnits="userSpaceOnUse">
      <path
         id="path3729"
         d="m 0,79.901 0,-80.52031 164.76,0 0,80.52031"
         inkscape:connector-curvature="0" />
    </clipPath>
    <clipPath
       id="clipPath3717"
       clipPathUnits="userSpaceOnUse">
      <path
         id="path3719"
         d="m 0,79.901 0,-80.52031 164.76,0 0,80.52031"
         inkscape:connector-curvature="0" />
    </clipPath>
    <clipPath
       id="clipPath3707"
       clipPathUnits="userSpaceOnUse">
      <path
         id="path3709"
         d="m 0,79.901 0,-80.52031 164.76,0 0,80.52031"
         inkscape:connector-curvature="0" />
    </clipPath>
    <clipPath
       id="clipPath3697"
       clipPathUnits="userSpaceOnUse">
      <path
         id="path3699"
         clip-rule="evenodd"
         d="m 0,79.901 0,-80.52031 164.76,0 0,80.52031"
         inkscape:connector-curvature="0" />
    </clipPath>
    <clipPath
       id="clipPath3687"
       clipPathUnits="userSpaceOnUse">
      <path
         id="path3689"
         clip-rule="evenodd"
         d="m 0,79.901 0,-80.52031 164.76,0 0,80.52031"
         inkscape:connector-curvature="0" />
    </clipPath>
    <clipPath
       id="clipPath3677"
       clipPathUnits="userSpaceOnUse">
      <path
         id="path3679"
         clip-rule="evenodd"
         d="m 0,79.901 0,-80.52031 164.76,0 0,80.52031"
         inkscape:connector-curvature="0" />
    </clipPath>
    <clipPath
       id="clipPath3667"
       clipPathUnits="userSpaceOnUse">
      <path
         id="path3669"
         clip-rule="evenodd"
         d="m 0,79.901 0,-80.52031 164.76,0 0,80.52031"
         inkscape:connector-curvature="0" />
    </clipPath>
    <clipPath
       id="clipPath3657"
       clipPathUnits="userSpaceOnUse">
      <path
         id="path3659"
         clip-rule="evenodd"
         d="m 0,79.901 0,-80.52031 164.76,0 0,80.52031"
         inkscape:connector-curvature="0" />
    </clipPath>
    <clipPath
       id="clipPath3647"
       clipPathUnits="userSpaceOnUse">
      <path
         id="path3649"
         clip-rule="evenodd"
         d="m 0,79.901 0,-80.52031 164.76,0 0,80.52031"
         inkscape:connector-curvature="0" />
    </clipPath>
    <clipPath
       id="clipPath3637"
       clipPathUnits="userSpaceOnUse">
      <path
         id="path3639"
         clip-rule="evenodd"
         d="m 0,79.901 0,-80.52031 164.76,0 0,80.52031"
         inkscape:connector-curvature="0" />
    </clipPath>
    <clipPath
       id="clipPath3627"
       clipPathUnits="userSpaceOnUse">
      <path
         id="path3629"
         clip-rule="evenodd"
         d="m 0,79.901 0,-80.52031 164.76,0 0,80.52031"
         inkscape:connector-curvature="0" />
    </clipPath>
    <clipPath
       id="clipPath3617"
       clipPathUnits="userSpaceOnUse">
      <path
         id="path3619"
         clip-rule="evenodd"
         d="m 0,79.901 0,-80.52031 164.76,0 0,80.52031"
         inkscape:connector-curvature="0" />
    </clipPath>
    <clipPath
       id="clipPath3607"
       clipPathUnits="userSpaceOnUse">
      <path
         id="path3609"
         clip-rule="evenodd"
         d="m 0,79.901 0,-80.52031 164.76,0 0,80.52031"
         inkscape:connector-curvature="0" />
    </clipPath>
    <clipPath
       id="clipPath3597"
       clipPathUnits="userSpaceOnUse">
      <path
         id="path3599"
         clip-rule="evenodd"
         d="m 0,79.901 0,-80.52031 164.76,0 0,80.52031"
         inkscape:connector-curvature="0" />
    </clipPath>
    <clipPath
       id="clipPath3587"
       clipPathUnits="userSpaceOnUse">
      <path
         id="path3589"
         clip-rule="evenodd"
         d="m 0,79.901 0,-80.52031 164.76,0 0,80.52031"
         inkscape:connector-curvature="0" />
    </clipPath>
    <clipPath
       id="clipPath3577"
       clipPathUnits="userSpaceOnUse">
      <path
         id="path3579"
         clip-rule="evenodd"
         d="m 0,79.901 0,-80.52031 164.76,0 0,80.52031"
         inkscape:connector-curvature="0" />
    </clipPath>
    <clipPath
       id="clipPath3567"
       clipPathUnits="userSpaceOnUse">
      <path
         id="path3569"
         clip-rule="evenodd"
         d="m 0,79.901 0,-80.52031 164.76,0 0,80.52031"
         inkscape:connector-curvature="0" />
    </clipPath>
    <clipPath
       id="clipPath3557"
       clipPathUnits="userSpaceOnUse">
      <path
         id="path3559"
         clip-rule="evenodd"
         d="m 0,79.901 0,-80.52031 164.76,0 0,80.52031"
         inkscape:connector-curvature="0" />
    </clipPath>
    <clipPath
       id="clipPath3547"
       clipPathUnits="userSpaceOnUse">
      <path
         id="path3549"
         clip-rule="evenodd"
         d="m 0,79.901 0,-80.52031 164.76,0 0,80.52031"
         inkscape:connector-curvature="0" />
    </clipPath>
    <clipPath
       id="clipPath3537"
       clipPathUnits="userSpaceOnUse">
      <path
         id="path3539"
         clip-rule="evenodd"
         d="m 0,79.901 0,-80.52031 164.76,0 0,80.52031"
         inkscape:connector-curvature="0" />
    </clipPath>
    <clipPath
       id="clipPath3527"
       clipPathUnits="userSpaceOnUse">
      <path
         id="path3529"
         clip-rule="evenodd"
         d="m 0,79.901 0,-80.52031 164.76,0 0,80.52031"
         inkscape:connector-curvature="0" />
    </clipPath>
    <clipPath
       id="clipPath3517"
       clipPathUnits="userSpaceOnUse">
      <path
         id="path3519"
         clip-rule="evenodd"
         d="m 0,79.901 0,-80.52031 164.76,0 0,80.52031"
         inkscape:connector-curvature="0" />
    </clipPath>
    <clipPath
       id="clipPath3507"
       clipPathUnits="userSpaceOnUse">
      <path
         id="path3509"
         clip-rule="evenodd"
         d="m 0,79.901 0,-80.52031 164.76,0 0,80.52031"
         inkscape:connector-curvature="0" />
    </clipPath>
    <clipPath
       id="clipPath3497"
       clipPathUnits="userSpaceOnUse">
      <path
         id="path3499"
         clip-rule="evenodd"
         d="m 0,79.901 0,-80.52031 164.76,0 0,80.52031"
         inkscape:connector-curvature="0" />
    </clipPath>
    <clipPath
       id="clipPath3487"
       clipPathUnits="userSpaceOnUse">
      <path
         id="path3489"
         clip-rule="evenodd"
         d="m 0,79.901 0,-80.52031 164.76,0 0,80.52031"
         inkscape:connector-curvature="0" />
    </clipPath>
    <clipPath
       id="clipPath3477"
       clipPathUnits="userSpaceOnUse">
      <path
         id="path3479"
         clip-rule="evenodd"
         d="m 0,79.901 0,-80.52031 164.76,0 0,80.52031"
         inkscape:connector-curvature="0" />
    </clipPath>
    <clipPath
       id="clipPath3463"
       clipPathUnits="userSpaceOnUse">
      <path
         id="path3465"
         d="m 0,0 164.87,0 0,79.901 L 0,79.901 0,0 z"
         inkscape:connector-curvature="0" />
    </clipPath>
    <clipPath
       id="clipPath3453"
       clipPathUnits="userSpaceOnUse">
      <path
         id="path3455"
         clip-rule="evenodd"
         d="M 1.81e-7,583.44 612,583.44 612,682.92 1.81e-7,682.92 l 0,-99.48 z"
         inkscape:connector-curvature="0" />
    </clipPath>
  </defs>
  <sodipodi:namedview
     id="base"
     pagecolor="#ffffff"
     bordercolor="#666666"
     borderopacity="1.0"
     inkscape:pageopacity="0.0"
     inkscape:pageshadow="2"
     inkscape:zoom="0.35"
     inkscape:cx="644.04177"
     inkscape:cy="192.42784"
     inkscape:document-units="px"
     inkscape:current-layer="g2993"
     showgrid="false"
     fit-margin-left="0.5"
     fit-margin-bottom="0.5"
     fit-margin-top="0.5"
     fit-margin-right="0.5"
     inkscape:window-width="1048"
     inkscape:window-height="1017"
     inkscape:window-x="854"
     inkscape:window-y="1"
     inkscape:window-maximized="0" />
  <metadata
     id="metadata7">
    <rdf:RDF>
      <cc:Work
         rdf:about="">
        <dc:format>image/svg+xml</dc:format>
        <dc:type
           rdf:resource="http://purl.org/dc/dcmitype/StillImage" />
        <dc:title></dc:title>
      </cc:Work>
    </rdf:RDF>
  </metadata>
  <g
     inkscape:label="Layer 1"
     inkscape:groupmode="layer"
     id="layer1"
     transform="translate(-317.34277,93.70068)">
    <g
       transform="matrix(1.25,0,0,-1.25,45.967767,1138.1087)"
       inkscape:label="867-1-Press Release"
       id="g2993">
      <g
         id="g3449"
         transform="matrix(4.4976561,0,0,4.4976561,-760.7402,-2086.4918)">
        <g
           clip-path="url(#clipPath3453)"
           id="g3451">
          <g
             transform="matrix(2.4697,0,0,1.2,217.5,596.54)"
             id="g3457">
            <g
               transform="scale(0.43669,0.90112)"
               id="g3459">
              <g
                 clip-path="url(#clipPath3463)"
                 id="g3461">
                <g
                   id="g3467">
                  <g
                     id="g3469">
                    <g
                       id="g3471" />
                  </g>
                  <g
                     id="g3473">
                    <g
                       clip-path="url(#clipPath3477)"
                       id="g3475">
                      <path
                         id="path3481"
                         style="fill:#000000;fill-opacity:1;fill-rule:nonzero;stroke:none"
                         d="m 79.904,36.677 0,0 -0.675,0 0,1.35 0.675,0 0,-1.35 z m -0.075,-1.876 0,0 -0.6,0 0,1.35 0.6,0 0,-1.35 z m -1.275,0 0,0 -0.676,0 0,1.425 0.676,0 0,-1.425 z m -0.676,3.226 0,0 0.676,0 0,-1.275 -0.676,0 0,1.275 z m 2.551,0.676 0,0 c 0,0.6 -0.6,0.525 -0.6,0.525 l -2.176,0 c -0.75,-0.15 -0.6,-0.525 -0.6,-0.525 l 0,-3.977 c 0,-0.601 0.45,-0.601 0.45,-0.601 l 2.401,0 c 0.6,0.15 0.525,0.751 0.525,0.751 l 0,3.827 z"
                         inkscape:connector-curvature="0" />
                    </g>
                  </g>
                  <g
                     id="g3483">
                    <g
                       clip-path="url(#clipPath3487)"
                       id="g3485">
                      <path
                         id="path3491"
                         style="fill:#000000;fill-opacity:1;fill-rule:nonzero;stroke:none"
                         d="m 67.825,29.247 0,0 c 0.6,1.802 2.026,1.351 2.026,1.351 -0.075,0.751 1.125,1.651 1.125,1.651 l 0,0.3 c -1.2,0.15 -1.501,-1.125 -1.501,-1.125 -2.325,0 -1.95,-2.177 -1.95,-2.177 l 0.3,0 z"
                         inkscape:connector-curvature="0" />
                    </g>
                  </g>
                  <g
                     id="g3493">
                    <g
                       clip-path="url(#clipPath3497)"
                       id="g3495">
                      <path
                         id="path3501"
                         style="fill:#000000;fill-opacity:1;fill-rule:nonzero;stroke:none"
                         d="m 69.1,29.247 0,0 0.225,0 c 0.3,0.901 1.726,0.676 1.726,0.676 l 0,0.225 C 69.1,30.973 69.1,29.247 69.1,29.247 z"
                         inkscape:connector-curvature="0" />
                    </g>
                  </g>
                  <g
                     id="g3503">
                    <g
                       clip-path="url(#clipPath3507)"
                       id="g3505">
                      <path
                         id="path3511"
                         style="fill:#000000;fill-opacity:1;fill-rule:nonzero;stroke:none"
                         d="m 72.026,39.303 0,0 c 0,0 4.802,6.529 5.177,6.904 0.375,0.3 0.375,1.276 0.375,1.276 0,0 0,0.75 0,1.576 0,0.9 0.526,0.75 0.526,0.75 0,0 1.65,0 2.1,0 0.45,-0.075 0.375,-0.45 0.375,-0.45 0,0 0.075,-1.276 0,-2.026 -0.075,-0.676 0.226,-0.751 0.226,-0.751 l 5.176,-7.504 c -0.6,-0.075 -0.675,-0.45 -0.675,-0.45 0.075,-3.677 -0.225,-9.005 -0.225,-9.381 -6.002,0 -10.279,-0.075 -13.205,-0.075 l 0.15,10.131 z m 7.128,11.932 0,0 0.675,0 0.225,-0.3 -0.15,-0.376 -0.75,-0.075 -0.3,0.226 c -0.375,0.225 0.075,0.675 0.3,0.525 z m 2.626,-2.176 0,0 c 0,0 -0.075,-0.376 0.075,-0.901 0.075,-0.6 0.6,-0.6 0.6,-0.6 0,0 2.551,-0.225 2.851,-0.3 0.3,-0.075 0.45,-0.376 0.45,-0.376 0,0 6.078,-7.354 6.378,-7.579 0.225,-0.15 -0.075,-0.225 -0.075,-0.225 0,0 -3.452,0 -5.177,0 -0.15,0.3 -5.252,7.579 -5.477,7.804 -0.225,0.226 -0.15,0.826 -0.15,0.826 l -0.075,1.726 c 0.6,0.15 0.6,-0.375 0.6,-0.375 z m 4.727,-1.426 0,0 3.376,3.902 c 0.375,0.375 0.3,0.976 0.3,0.976 0,0 0.075,10.355 0.075,10.505 0,0.151 0.075,0.226 0.075,0.226 0,0 -0.075,0 -0.15,0 l 23.257,0.075 c 0.15,-0.451 0.08,-2.177 0.08,-2.177 -0.08,-0.45 0.37,-0.45 0.37,-0.45 0.3,0.15 0.45,-0.375 0.45,-0.375 0,-0.75 -0.07,-23.488 -0.07,-23.488 0.07,-0.526 0.52,-0.751 0.52,-0.751 l -0.07,-5.928 c 0,-0.3 -0.15,-0.675 -0.3,-0.825 -0.3,0 -0.53,0 -0.53,0.075 -0.45,0.15 -0.3,0.375 -0.3,0.375 0,0 -0.15,10.13 0,10.281 0.23,0.075 0.23,0.45 0.23,0.45 0,0 -0.08,0.075 -0.3,0.375 -0.15,0.375 -0.68,0.45 -0.68,0.45 l -0.45,0 c 0,0 -0.07,0.225 -0.67,0.451 -0.15,0.075 -0.08,0.375 -0.08,0.375 0.23,0.6 0.3,1.501 0.3,1.726 0,0 0,0 0,0 0.08,0.075 0.15,0.075 0.3,0.15 0.98,0.6 -0.07,0.75 -0.07,0.75 l -1.73,0 c -1.05,-0.225 0.3,-0.825 0.3,-0.825 -0.22,-1.426 0.15,-1.276 0.15,-1.726 0.08,-0.225 0.08,-0.3 0.15,-0.3 -0.07,0 -0.07,-0.075 -0.22,-0.225 -0.23,-0.226 -0.6,-0.376 -0.6,-0.376 l -0.75,0.075 c -0.46,-0.225 -0.16,-0.3 0,-0.6 0.15,-0.3 0.07,-0.525 0.07,-0.525 l 0,-1.126 c -0.23,0.525 -1.88,1.276 -3.53,0.3 -1.72,-0.975 -1.57,-2.701 -1.57,-2.701 l 0,-5.103 c 0.07,-0.826 -0.15,-0.826 -0.15,-0.826 l -2.55,0 c -0.83,0.075 -1.2,0.301 -1.2,0.301 l 0,8.93 c -0.08,0.075 0.07,0.075 0.07,0.075 l 0.15,0 c 0.3,0.225 0.08,0.525 0.08,0.525 0,0 -0.45,0.375 -0.75,0.675 -0.08,0.075 -0.304,0.15 -0.304,0.15 0,0 -0.675,-0.225 -0.675,0 -0.075,0.226 -0.3,0.451 -0.45,0.601 -0.225,0.075 -0.15,0.375 0,0.45 0.075,0.075 0.15,0.976 0.15,1.276 -0.075,0.225 0.3,0.3 0.3,0.3 0.979,0.45 0.075,0.825 0.075,0.825 0,0 -1.725,0.075 -2.176,0 -0.375,-0.075 -0.225,-0.6 -0.075,-0.675 0.075,-0.075 0.676,-0.375 0.601,-0.375 -0.075,-0.075 0.15,-1.351 0.15,-1.351 0.225,-0.3 0.075,-0.525 0.075,-0.525 -0.375,0 -0.525,-0.526 -0.525,-0.526 l -0.676,0.075 c -1.125,0.151 -0.225,-1.05 -0.15,-0.975 0.15,0 0.15,-0.525 0.15,-0.525 L 96.485,29.323 c -0.15,0 -0.375,0 -0.525,0 -0.075,1.125 0.075,7.279 0.075,7.279 -0.225,0.3 -0.6,-0.075 -0.6,-0.075 l -0.15,-7.204 c -0.225,0 -0.45,0 -0.675,0 0,0.6 0.225,6.978 0,7.279 -0.226,0.3 -0.451,-0.075 -0.451,-0.075 l -0.15,-7.204 c -0.15,0 -0.3,0 -0.375,0 -0.3,0.15 -0.225,0.45 -0.225,0.45 l 0.075,6.604 c -0.525,0.15 -0.45,0.6 -0.45,0.6 l 0.075,1.05 c 0.225,0.075 0.375,0.075 0.375,0.075 0.3,0.076 0.225,0.451 0.225,0.451 l -7.352,8.555 c 0,0.3 0.15,0.525 0.15,0.525 z m 3.301,17.034 0,0 c 0,0 15.902,10.506 16.052,10.807 0,0 0.53,0.9 0.98,0.375 0,0 8.4,-9.831 9.38,-11.031 0,0 0.97,-0.901 -0.08,-0.751 0,0 -19.055,0.525 -26.107,0.075 0,0 -0.975,-0.225 -0.225,0.525 z m 27.462,4.878 0,0 c 0.6,-0.075 0.82,0 0.82,0 0,0 0.45,-0.375 0.45,-0.75 l 0.08,-4.428 c 0,0 0,-0.45 -0.38,-0.15 0,0 -1.27,1.201 -1.27,1.351 0.07,0.225 -0.15,-0.075 -0.15,0.525 l 0.07,3.002 c 0,0 -0.22,0.525 0.38,0.45 z m -1.95,-7.354 0,0 c 0,0 0.15,-25.289 0,-25.439 0,0 0.37,-0.826 0.82,0 l -0.15,24.463 c 0,0 -0.15,0.601 0.38,0.601 l 0.45,0 c 0,0 0.37,-0.15 0.22,-0.601 -0.07,-0.525 0.6,-22.062 0.45,-22.812 0,0 0,-0.901 0.83,-0.601 l 10.73,0 0,-8.479 c -0.08,0 -0.3,0 -0.45,0 -0.15,0.15 -0.15,0.375 -0.15,0.375 l 0,6.303 c -0.45,0.751 -0.68,0.15 -0.68,0.15 l -0.07,-6.828 c -0.23,0 -0.45,0 -0.6,0 l -0.08,6.903 c -0.22,0.451 -0.6,0 -0.6,0 l -0.07,-6.678 c 0,0 -0.08,-0.15 -0.15,-0.301 -0.15,0 -0.23,0 -0.38,0 -0.07,0.151 -0.07,0.451 -0.07,0.451 l 0.07,6.453 c -0.75,0.901 -0.82,-0.3 -0.82,-0.3 l 0,-6.303 c 0,-0.15 -0.08,-0.225 -0.15,-0.301 -0.08,0 -0.15,0 -0.3,0 l -0.15,0.226 0,6.753 c -0.53,0.676 -0.75,-0.075 -0.75,-0.075 l -0.15,-6.904 c -0.08,0 -0.15,0 -0.23,0 -0.23,0.151 -0.23,0.301 -0.23,0.301 -0.22,0.075 0,6.528 0,6.528 -0.37,0.826 -0.67,0.075 -0.67,0.075 l -0.15,-6.528 c 0,-0.075 -0.08,-0.3 -0.15,-0.376 -0.15,0 -0.3,0 -0.38,0 l 0,6.979 c -0.37,0.676 -0.75,-0.15 -0.75,-0.15 l -0.07,-6.829 -0.15,0 c -0.38,0.226 -0.3,0.451 -0.3,0.451 l 0,6.528 c -0.3,0.751 -0.68,0 -0.68,0 l 0,-6.828 c 0,0 -0.07,-0.075 -0.15,-0.151 -0.07,0 -0.22,0 -0.3,0 -0.22,0.151 -0.22,0.376 -0.22,0.376 l 0,6.528 c -0.23,0.676 -0.6,0 -0.6,0 -0.08,0 0,-6.228 0,-6.228 0.07,-0.45 -0.3,-0.6 -0.45,-0.676 0,0 -0.08,0 -0.08,0 -0.15,0.151 -0.15,0.526 -0.15,0.526 l 0.15,6.378 c -0.37,0.601 -0.67,0 -0.67,0 l -0.15,-6.378 c 0.07,-0.15 -0.15,-0.375 -0.23,-0.526 -0.07,0 -0.15,0 -0.22,0 -0.15,0.301 -0.08,0.601 -0.08,0.601 l 0,6.303 c -0.37,0.451 -0.6,-0.075 -0.6,-0.075 l 0,-6.303 c 0,-0.225 -0.15,-0.45 -0.22,-0.526 -0.15,0 -0.23,0 -0.3,0.076 -0.23,0.15 -0.15,0.525 -0.15,0.525 l -0.08,6.529 c -0.45,0 -0.22,0.3 -0.22,0.3 0,0 -0.08,23.713 0,24.238 0,0.526 -0.45,0.601 -0.45,0.601 l -0.3,0 -0.08,1.876 2.1,0 c 0.3,0 0.53,0 0.75,-0.075 0,-0.225 -0.07,-0.676 -0.45,-0.676 l -0.9,0 c 0,0 -0.45,0.075 -0.37,-0.45 z m 3.07,-23.113 0,0 c -0.07,0.075 -0.22,0.225 -0.22,0.525 l 0.22,-0.525 z m 0.23,0.375 0,0 3.75,6.604 c 0,0 0.07,0.375 0.6,0.375 l 5.25,0 c 0,0 0.23,0 0.23,-0.225 l 0.07,-1.351 c 0,0 -0.07,-0.3 -0.52,-0.225 0,0 -0.6,0 -0.38,-0.3 0,0 0.38,-1.126 1.43,-0.225 l 0.15,0.6 0,3.452 c 0,0 0,0.525 0.37,0.45 0.38,-0.15 1.13,0 1.13,0 0,0 0.37,0.075 0.3,-0.3 l 0,-4.502 c 0,0 -0.08,-0.451 -0.23,-0.601 0,0 -2.17,-3.677 -2.1,-3.902 0,0 -0.07,-0.3 -0.45,-0.3 l 0.83,0 0,-0.075 -10.36,0 9.23,0.075 -9.45,0 c 0,0 0,0 0,0 0,0.075 0,0.225 0.15,0.45 z m 13.2,4.503 0,0 0,4.502 c 0,0 0.83,0.3 0.9,-0.525 l 0.08,-2.852 c 0,0 0.07,-0.9 0.45,-1.125 0,0 2.47,-4.803 2.55,-4.803 0,0 0.52,-0.75 -0.3,-0.75 l 0,-9.156 c 0,0 0,-0.15 -0.3,-0.225 0,0 -2.93,0.376 -4.8,0.15 0,0 -0.83,-0.075 -0.75,0.526 l -0.08,9.455 c 0,0 0.08,0.375 0.23,0.45 l 1.72,3.527 c 0,0 0.23,0.3 0.3,0.826 z m -20.4,-6.154 0,0 0.82,0 c 0,0 0.23,0 0.23,-0.15 l 0,-2.176 c 0,0 0,-0.075 -0.15,-0.15 l -1.05,0 c 0,0 -0.23,-0.6 0.22,-0.675 l 0.68,0 c 0,0 0.3,0 0.3,-0.301 l 0,-1.576 c 0,0 0,-0.15 -0.23,-0.225 l -0.9,0 c 0,0 -0.45,-0.825 0.45,-0.825 l 0.6,0 0,-2.251 -1.8,-0.075 c 0,0 -0.37,0.075 -0.37,0.45 0,0.375 0,10.055 0,10.055 0,0 -0.08,0.451 0.22,0.526 0.38,0 1.88,0 1.88,0 0,0 0.07,0 0.15,-0.225 0.07,-0.301 0.07,-1.201 0.07,-1.201 0,0 -0.07,-0.3 -0.22,-0.375 -0.15,-0.075 -0.9,-0.075 -0.9,-0.075 0,0 -0.45,-0.3 0,-0.751 z m -4.73,-6.904 0,0 c -0.75,-0.225 -0.6,0.451 -0.6,0.451 l 0,5.553 c -0.08,0.525 0.37,1.576 0.37,1.576 l -0.15,-0.075 c 1.95,1.801 3.23,-0.301 3.23,-0.301 l 0,-7.204 -2.85,0 z m -1.13,6.079 0,0 0,-4.728 c 0,0 0.08,-0.75 -0.15,-0.975 -0.3,-0.15 -0.37,0 -0.37,0 0,0 0.07,0.3 0,0.9 l 0,4.503 c 0,0 0,1.726 0.67,1.425 0,0 -0.22,-0.825 -0.15,-1.125 z m -7.874,-7.654 0,0 -0.375,0 0.15,10.731 c 0,0 0.075,0.375 0.3,0.3 0.225,0 1.8,0 1.8,0 l 0.075,-1.126 c 0,0 -0.075,-0.6 -0.3,-0.6 -0.15,-0.075 -0.9,-0.075 -0.9,-0.075 l 0,-0.526 0.975,-0.15 0.15,-2.176 c 0,0 0.075,-0.3 -0.075,-0.375 -0.15,0 -1.125,0 -1.125,0 0,0 -0.225,-0.6 0.3,-0.6 0.45,0 0.9,-0.075 0.9,-0.376 -0.075,-0.375 0,-1.576 0,-1.576 0,0 -0.075,-0.225 -0.15,-0.3 -0.15,-0.075 -1.05,0 -1.05,0 l 0,-0.525 c 0,0 -0.225,-0.15 0.375,-0.225 0.675,-0.075 0.75,0.15 0.75,-0.3 0,-0.375 -0.075,-1.876 -0.075,-2.101 -0.6,0 -1.2,0 -1.725,0 z m -11.705,8.479 0,0 c -0.075,0.376 0.301,0.225 0.301,0.225 0,0 3.901,0 6.002,0 0.15,-0.3 0.075,-1.2 0.15,-1.425 0.075,-0.15 0.15,-0.225 0.15,-0.301 0.15,-0.15 0.15,-0.375 0.15,-0.375 l 0,-6.228 c -0.075,-0.225 -0.075,-0.375 -0.15,-0.375 -0.15,-0.076 -0.375,-0.076 -0.6,-0.076 l 0,7.28 c -0.3,0.375 -0.526,0 -0.526,0 l -0.15,-6.604 c 0,-0.375 0,-0.525 -0.075,-0.676 -0.15,0 -0.3,0 -0.45,0 -0.15,0.151 -0.075,0.301 -0.075,0.301 l -0.075,7.054 c -0.15,0.3 -0.525,0 -0.525,0 l 0,-7.355 c -0.225,0 -0.45,0 -0.6,0 l 0,7.355 c -0.15,0.225 -0.525,0 -0.525,0 l -0.151,-7.355 c -0.225,0 -0.45,0 -0.75,0 l 0.075,7.28 c -0.375,0.375 -0.6,0 -0.6,0 l -0.075,-7.28 c -0.15,0 -0.375,0 -0.6,0 l 0.075,7.28 c -0.3,0.525 -0.45,0 -0.45,0 l -0.15,-7.28 c -0.15,0 -0.301,0 -0.376,0 -0.3,0.526 0.075,8.18 0,8.555 z m 14.629,-9.155 0,0 c 0.45,0.15 0.15,0.676 0.15,0.676 -0.07,0 -0.15,0 -0.22,0 l 0,0.6 c 0.15,0.225 0.6,0.225 0.6,0.225 l 7.95,0 c 0.22,0 0.38,0 0.45,0 l 0,-1.126 c -0.15,-0.225 0.45,-0.45 0.45,-0.45 l 19.06,0 0,0 c 1.35,-0.15 9.45,-0.075 9.68,-0.075 0.37,0.225 -0.15,0.3 -0.15,0.3 l -1.96,0 c -0.3,0.075 -0.22,0.225 -0.22,0.225 l 0,8.63 0.68,0 c 0.75,0.075 0.15,0.526 0.15,0.526 0,0 -3.31,6.303 -3.46,6.303 -0.15,0.075 -0.3,1.501 -0.3,1.501 l 0,2.476 c -0.07,1.126 -1.2,0.976 -1.2,0.976 0,0 -3.07,-0.075 -3.37,0 -0.38,0.075 -0.38,-0.375 -0.38,-0.375 l 0,-1.576 c -0.15,-0.225 -0.22,-0.225 -0.22,-0.225 l -5.93,0 c -0.23,-0.075 -3.9,-6.829 -3.9,-6.829 -0.15,-0.15 -0.3,-0.225 -0.38,-0.3 0,0.15 0,0.375 0,0.525 l -0.37,22.287 c 0,0.151 0.07,0.226 0.15,0.301 0.75,-0.226 0.9,-0.526 0.9,-0.526 0.45,-0.225 0.45,0.15 0.45,0.15 l -0.15,8.03 c 0.07,0.375 -0.3,0.375 -0.3,0.375 0.07,0.075 -0.15,0.525 -0.15,0.525 l 1.05,0 0,-2.776 0.22,-0.45 c 0.23,0 0.15,-0.526 0.15,-0.526 l 0.08,-10.431 c -0.08,-0.225 0.67,-0.75 1.05,-0.675 0.37,0.15 0.37,0.225 0.37,0.6 0,0.301 -0.37,0.15 -0.6,0.376 -0.3,0.225 -0.22,0.375 -0.22,0.375 0,0 0,2.851 0,3.302 0,0.45 0.45,0.15 0.45,0.15 l 0.9,-0.601 0.3,-13.882 0.75,0 c 0,0 -0.3,12.307 -0.3,12.682 0,0.45 0.3,0.45 0.3,0.45 l 0.6,0 c 0.68,0.15 0.08,0.75 0.08,0.75 l -2.63,2.552 c -0.3,0.075 -0.3,0.675 -0.3,0.675 l -0.08,3.902 -0.45,0.601 c -0.15,0.225 -0.07,0.375 -0.07,0.375 l 0,2.476 c -0.08,0.376 -0.38,0.301 -0.38,0.301 l -1.35,0 c -0.3,0 -0.3,-0.226 -0.3,-0.226 l 0,-0.525 c -0.45,0.075 -0.37,-0.225 -0.37,-0.225 -0.53,0.075 -0.45,-0.45 -0.45,-0.45 0,0 -0.38,-0.075 -0.83,0 -0.45,0.075 -0.52,-0.751 -0.52,-0.751 l -0.08,-0.825 c -0.3,-0.525 -0.37,0 -0.6,0 -0.22,-0.075 -7.35,7.579 -7.73,7.804 -0.37,0.225 -0.6,0.976 -0.6,0.976 l 0,2.176 -0.9,0 c -0.3,0.075 -0.37,-0.6 -0.37,-0.6 l 0,-1.876 c -0.23,-0.225 -0.23,-0.601 -0.6,-0.751 -0.38,-0.225 -4.2,-3.527 -4.43,-3.452 -0.3,0 -12.978,-9.005 -12.978,-9.005 -0.75,-0.975 0.3,-1.05 0.3,-1.05 l 1.351,0 c 0,0 0,0 0,0 0.225,-0.075 0.15,-0.226 0.15,-0.226 l -0.3,-10.655 -0.15,-0.376 -3.452,-4.052 0,0 c 0,0 -2.551,0.15 -2.851,0.3 -0.3,0.075 -0.375,0.375 -0.375,0.375 0,0 0.075,0.976 0,1.201 0,0.225 -0.225,0.375 -0.225,0.375 l -1.125,0.451 0,0.75 c -1.501,1.726 -2.926,0.375 -2.926,0.375 0,0 0,-0.75 -0.075,-0.9 0,-0.15 -0.226,-0.225 -0.226,-0.225 0,0 -0.3,-0.076 -0.525,-0.076 -0.225,0 -0.375,-0.45 -0.375,-0.45 l 0,-2.701 c -0.225,-0.451 -0.3,-0.526 -0.3,-0.526 l -6.077,-7.879 c -0.375,-0.225 -0.15,-0.45 -0.15,-0.45 l 0.825,-0.075 -0.075,-9.306 C 68.425,29.097 67.15,29.097 67.15,29.097 66.624,28.872 66.849,28.572 66.849,28.572 l 33.761,0.075 z"
                         inkscape:connector-curvature="0" />
                    </g>
                  </g>
                  <g
                     id="g3513">
                    <g
                       clip-path="url(#clipPath3517)"
                       id="g3515">
                      <path
                         id="path3521"
                         style="fill:#000000;fill-opacity:1;fill-rule:nonzero;stroke:none"
                         d="m 76.603,27.146 0,0 c 9.228,-0.225 18.532,0 27.837,0.15 0,0 -0.08,0.376 -0.23,0.376 -9.901,0 -19.804,-0.075 -30.383,-0.075 -2.401,0 -4.877,0.075 -7.278,0.075 -0.75,-0.901 5.852,-0.376 10.054,-0.526 z"
                         inkscape:connector-curvature="0" />
                    </g>
                  </g>
                  <g
                     id="g3523">
                    <g
                       clip-path="url(#clipPath3527)"
                       id="g3525">
                      <path
                         id="path3531"
                         style="fill:#000000;fill-opacity:1;fill-rule:nonzero;stroke:none"
                         d="m 112.92,27.522 0,0 c -1.65,0 -3.3,0 -4.96,0.075 -0.45,0 -0.07,-0.376 0,-0.376 5.71,-0.225 10.58,-0.225 16.81,0 0.08,0 0.08,0.301 0,0.301 -3.98,0.075 -7.88,0 -11.85,0 z"
                         inkscape:connector-curvature="0" />
                    </g>
                  </g>
                  <g
                     id="g3533">
                    <g
                       clip-path="url(#clipPath3537)"
                       id="g3535">
                      <path
                         id="path3541"
                         style="fill:#000000;fill-opacity:1;fill-rule:nonzero;stroke:none"
                         d="m 142.25,27.371 0,0 c -1.05,-0.075 -2.62,-0.15 -3.15,-0.525 -0.15,0.45 -0.6,0.3 -0.9,0.3 -1.2,0.15 -2.48,0.15 -3.75,0.15 -1.88,0 -3.98,0.15 -5.7,0.15 -0.38,0 -1.65,0.151 -1.28,-0.3 4.13,-0.6 6.23,-0.15 9.3,-0.375 1.51,-0.075 3.01,0.075 4.58,0 0.15,0 0.38,-0.3 0.53,-0.225 0.37,0.15 0.67,0.9 0.37,0.825 z"
                         inkscape:connector-curvature="0" />
                    </g>
                  </g>
                  <g
                     id="g3543">
                    <g
                       clip-path="url(#clipPath3547)"
                       id="g3545">
                      <path
                         id="path3551"
                         style="fill:#000000;fill-opacity:1;fill-rule:nonzero;stroke:none"
                         d="m 140.3,25.345 0,0 c -3.37,0.075 -6.75,0.075 -10.13,0.3 -7.05,0.526 -14.03,0.226 -21.08,0.151 -0.3,0 -0.83,0 -1.2,0 -2.18,0 -4.43,-0.075 -6.68,0 -9.376,0.3 -26.633,0.075 -27.533,0.075 -0.075,0 -0.825,-0.15 0.15,-0.526 0.525,-0.075 1.05,0 1.576,0 0.075,0 64.977,-0.225 65.047,-0.225 0,0 -0.07,0.225 -0.15,0.225 z"
                         inkscape:connector-curvature="0" />
                    </g>
                  </g>
                  <g
                     id="g3553">
                    <g
                       clip-path="url(#clipPath3557)"
                       id="g3555">
                      <path
                         id="path3561"
                         style="fill:#000000;fill-opacity:1;fill-rule:nonzero;stroke:none"
                         d="m 92.734,44.331 0,0 c 0,0 0,-0.15 -0.15,-0.15 -0.075,-0.075 -0.45,0 -0.45,0 l -0.075,0.075 0,1.426 c 0,0 0,0.15 0.15,0.075 0.075,0 0.45,0.075 0.45,0.075 0,0 0.15,-0.075 0.075,-0.15 0,-0.15 0,-1.351 0,-1.351 z m 0.6,2.326 0,0 c 0.075,0.526 -0.375,0.451 -0.375,0.451 0,0 -1.125,-0.076 -1.426,0 -0.3,0 -0.225,-0.451 -0.225,-0.451 l 0,-3.076 c -0.075,-0.451 0.3,-0.376 0.3,-0.376 l 1.426,0 c 0.375,0 0.3,0.376 0.3,0.376 l 0,3.076 z"
                         inkscape:connector-curvature="0" />
                    </g>
                  </g>
                  <g
                     id="g3563">
                    <g
                       clip-path="url(#clipPath3567)"
                       id="g3565">
                      <path
                         id="path3571"
                         style="fill:#000000;fill-opacity:1;fill-rule:nonzero;stroke:none"
                         d="m 105.19,44.181 0,0 c 0.15,-0.075 0.52,-0.225 0.97,-0.45 l -0.07,0 0,-1.426 0.45,-0.075 0,0.525 c 0,0 0.07,0.225 0.3,0 l 0,-0.6 0.37,-0.075 0,0.9 c 0,0 -0.22,0.375 -0.6,0.15 l 0,0.376 c 0.45,-0.226 0.83,-0.376 0.83,-0.376 0,0 0.15,-0.15 0.15,-0.225 0,-0.15 0,-0.675 0,-0.675 0,0 0.07,-0.375 -0.23,-0.375 l -1.87,0.45 c -0.15,1.201 0.45,0.825 0.45,0.825 l 0,0.451 -0.53,0 c -0.37,-0.075 -0.3,-0.376 -0.3,-0.376 l 0,-0.825 -0.07,0 c 0,0 -0.15,0 -0.15,0.225 l 0,1.351 c 0,0 0,0.375 0.3,0.225 z m -1.13,0.9 0,0 0.08,-3.151 c 0.07,-0.301 0.6,-0.376 0.6,-0.376 0,0 3.07,-0.3 3.22,-0.3 0.23,0.075 0.3,0.3 0.3,0.3 0,0 0,1.576 0,1.726 -0.07,0.15 -0.3,0.451 -0.3,0.451 0,0 -2.77,1.35 -3.3,1.576 -0.52,0.225 -0.6,-0.226 -0.6,-0.226 z"
                         inkscape:connector-curvature="0" />
                    </g>
                  </g>
                  <g
                     id="g3573">
                    <g
                       clip-path="url(#clipPath3577)"
                       id="g3575">
                      <path
                         id="path3581"
                         style="fill:#000000;fill-opacity:1;fill-rule:nonzero;stroke:none"
                         d="m 103.39,48.008 0,0 c 0.15,0 0.52,0 0.52,0 0,0 0.15,0 0.15,-0.15 0,-0.15 0,-0.826 0,-0.826 l -0.22,-0.075 -0.6,0 0,0.901 c 0,0 0,0.225 0.15,0.15 z m -0.15,3.302 0,0 0.75,0.075 c 0,0 0.22,-0.075 0.15,-0.225 0,-0.225 0.07,-0.525 0.07,-0.525 0,0 -0.07,-0.151 -0.3,-0.226 -0.15,0 -0.67,0.075 -0.67,0.075 l 0,0.826 z m 1.8,0.075 0,0 c 0.22,-0.075 0.3,0.075 0.45,-0.075 0.15,-0.225 0.15,-0.675 0.15,-0.826 0,-0.075 -0.15,-0.075 -0.38,-0.075 0.15,0 -0.3,-0.15 -0.45,0.15 -0.15,0.376 0.08,0.601 0.08,0.601 0,0 -0.08,0.225 0.15,0.225 z m -0.23,-2.627 0,0 0,0.901 c 0,0 0.08,0.15 0.23,0.15 0.15,-0.075 0.52,-0.075 0.52,-0.075 0,0 0.08,-0.6 0,-0.976 l -0.75,0 z m 0.75,-1.5 0,0 c 0,-0.226 -0.07,-0.376 -0.22,-0.376 l -0.45,0.075 0,1.051 0.52,0 c 0,0 0.23,0 0.23,-0.225 0,0 0,-0.15 -0.08,-0.525 z m -1.42,1.651 0,0 c 0,0 0,-0.151 -0.23,-0.226 -0.22,0 -0.67,0 -0.67,0 l 0,1.051 0.67,0.075 c 0,0 0.15,0 0.23,-0.15 0,-0.15 0,-0.75 0,-0.75 z m -1.5,-2.627 0,0 3.3,0 c 0.3,0.075 0.37,0.45 0.37,0.45 l 0,5.328 c -0.07,0.526 -0.52,0.451 -0.52,0.451 l -3.23,0 c -0.37,0 -0.37,-0.526 -0.37,-0.526 l 0,-5.028 c -0.08,-0.6 0.45,-0.675 0.45,-0.675 z"
                         inkscape:connector-curvature="0" />
                    </g>
                  </g>
                  <g
                     id="g3583">
                    <g
                       clip-path="url(#clipPath3587)"
                       id="g3585">
                      <path
                         id="path3591"
                         style="fill:#000000;fill-opacity:1;fill-rule:nonzero;stroke:none"
                         d="m 108.49,36.827 0,0 -0.83,0 c -0.15,0 -0.22,-0.225 -0.22,-0.225 l 0,-0.451 c 0,-0.375 0.3,-0.3 0.3,-0.3 l 0.67,0 c 0.3,0 0.3,0.225 0.3,0.225 l 0,0.526 c 0,0.3 -0.22,0.225 -0.22,0.225 z"
                         inkscape:connector-curvature="0" />
                    </g>
                  </g>
                  <g
                     id="g3593">
                    <g
                       clip-path="url(#clipPath3597)"
                       id="g3595">
                      <path
                         id="path3601"
                         style="fill:#000000;fill-opacity:1;fill-rule:nonzero;stroke:none"
                         d="m 94.91,60.54 0,0 0.6,0.075 c 0,0 0.15,-0.15 0.15,-0.3 0.075,-0.15 0,-0.6 0,-0.6 0,0 0,-0.15 -0.075,-0.225 -0.15,-0.076 -0.675,0 -0.675,0 l 0,1.05 z m 1.875,-1.876 0,0 c 0,0 0.075,-0.525 0,-0.6 0,-0.15 -0.15,-0.3 -0.15,-0.3 l -0.45,0 -0.075,0.9 0.675,0 z m -0.075,1.801 0,0 0.15,-0.225 -0.075,-0.675 -0.525,0 -0.075,0.975 0.525,-0.075 z m -1.05,-2.626 0,0 -0.675,0 -0.075,0.825 0.525,0 c 0,0 0.15,-0.075 0.225,-0.225 0,-0.15 0,-0.6 0,-0.6 z m -1.351,-0.826 0,0 2.852,0 c 0.225,0.075 0.225,0.225 0.225,0.225 l 0,3.902 c 0,0.376 -0.301,0.301 -0.301,0.301 l -2.55,0 c -0.301,0.075 -0.451,-0.226 -0.451,-0.226 l 0,-3.977 c 0.075,-0.3 0.225,-0.225 0.225,-0.225 z"
                         inkscape:connector-curvature="0" />
                    </g>
                  </g>
                  <g
                     id="g3603">
                    <g
                       clip-path="url(#clipPath3607)"
                       id="g3605">
                      <path
                         id="path3611"
                         style="fill:#000000;fill-opacity:1;fill-rule:nonzero;stroke:none"
                         d="m 103.99,60.315 0,0 c 0,0 0.22,0.6 0.82,0 l 0,-1.726 c 0,0 -0.52,-0.825 -0.82,0.075 l 0,1.651 z m 1.35,0 0,0 c 0,0 0.22,0.6 0.82,0 l 0,-1.726 c 0,0 -0.37,-0.825 -0.82,0 l 0,1.726 z m -2.18,-2.326 0,0 c 0,-0.526 0.38,-0.526 0.38,-0.526 l 2.92,0 c 0.23,0.075 0.3,0.301 0.3,0.301 l 0,3.151 c 0,0.751 -0.6,0.601 -0.6,0.601 l -2.62,0 c -0.45,0 -0.38,-0.376 -0.38,-0.376 l 0,-3.151 z"
                         inkscape:connector-curvature="0" />
                    </g>
                  </g>
                  <g
                     id="g3613">
                    <g
                       clip-path="url(#clipPath3617)"
                       id="g3615">
                      <path
                         id="path3621"
                         style="fill:#000000;fill-opacity:1;fill-rule:nonzero;stroke:none"
                         d="m 138.73,28.497 0,0 0,0 c 0,-0.075 -0.08,-0.075 -0.08,-0.075 l 0.08,0.075 z"
                         inkscape:connector-curvature="0" />
                    </g>
                  </g>
                  <g
                     id="g3623">
                    <g
                       clip-path="url(#clipPath3627)"
                       id="g3625">
                      <path
                         id="path3631"
                         style="fill:#000000;fill-opacity:1;fill-rule:nonzero;stroke:none"
                         d="m 128.22,39.003 0,0 -0.3,0 c 0.15,-0.075 0.23,-0.075 0.3,0 z"
                         inkscape:connector-curvature="0" />
                    </g>
                  </g>
                  <g
                     id="g3633">
                    <g
                       clip-path="url(#clipPath3637)"
                       id="g3635">
                      <path
                         id="path3641"
                         style="fill:#000000;fill-opacity:1;fill-rule:nonzero;stroke:none"
                         d="m 136.55,32.549 0,0 c 1.13,-0.15 1.05,-1.275 1.05,-1.275 l -0.52,-0.451 c -0.38,-0.525 0.3,-0.3 0.3,-0.3 0.75,0.375 1.35,-0.3 1.35,-0.3 0.37,-0.225 0.45,0.15 0.45,0.15 -0.15,0.976 -0.9,1.126 -0.9,1.126 0.15,0.75 -0.68,1.275 -0.68,1.275 -1.05,0.376 -1.05,-0.225 -1.05,-0.225 z"
                         inkscape:connector-curvature="0" />
                    </g>
                  </g>
                  <g
                     id="g3643">
                    <g
                       clip-path="url(#clipPath3647)"
                       id="g3645">
                      <path
                         id="path3651"
                         style="fill:#000000;fill-opacity:1;fill-rule:nonzero;stroke:none"
                         d="m 137.23,29.473 0,0 1.5,-0.075 0.22,-0.376 c 0.23,0.301 1.05,0.075 1.05,0.075 0.15,-0.45 0.83,-1.125 0.83,-1.125 l 0.37,0.525 c -0.15,0.45 -0.82,1.276 -0.82,1.276 -0.6,0.375 -0.98,-0.225 -0.98,-0.225 l -0.52,-0.075 c -0.75,1.35 -1.65,0 -1.65,0 z"
                         inkscape:connector-curvature="0" />
                    </g>
                  </g>
                  <g
                     id="g3653">
                    <g
                       clip-path="url(#clipPath3657)"
                       id="g3655">
                      <path
                         id="path3661"
                         style="fill:#000000;fill-opacity:1;fill-rule:nonzero;stroke:none"
                         d="m 142.85,28.572 0,0 c -0.37,1.351 -1.35,0.976 -1.35,0.976 0.75,-0.976 1.35,-0.976 1.35,-0.976 z"
                         inkscape:connector-curvature="0" />
                    </g>
                  </g>
                  <g
                     id="g3663">
                    <g
                       clip-path="url(#clipPath3667)"
                       id="g3665">
                      <path
                         id="path3671"
                         style="fill:#000000;fill-opacity:1;fill-rule:nonzero;stroke:none"
                         d="m 41.415,25.946 0,0 c -13.505,0 -17.181,14.333 -17.181,26.64 0,4.052 -0.675,26.715 17.031,26.79 17.707,0 17.181,-22.738 17.256,-26.79 0,-12.382 -3.601,-26.64 -17.106,-26.64 z m -0.075,53.955 0,0 c -18.682,0 -19.432,-23.188 -19.432,-27.465 0,-12.983 5.252,-27.316 19.507,-27.241 14.255,0 19.432,14.408 19.432,27.391 0,4.277 -0.9,27.39 -19.507,27.315 z"
                         inkscape:connector-curvature="0" />
                    </g>
                  </g>
                  <g
                     id="g3673">
                    <g
                       clip-path="url(#clipPath3677)"
                       id="g3675">
                      <path
                         id="path3681"
                         style="fill:#000000;fill-opacity:1;fill-rule:nonzero;stroke:none"
                         d="m 46.292,37.952 0,0 c -0.825,-0.075 -1.726,0.451 -3.151,0.376 -2.476,-0.15 -3.151,-1.051 -5.177,-0.751 -1.126,0.225 -1.951,0.901 -2.401,1.951 -0.525,1.276 -0.6,2.702 -0.675,4.053 -0.075,1.425 -0.075,3.001 0,4.502 0.075,1.051 0.15,2.101 0.3,3.227 0.225,1.801 0.6,3.527 1.05,5.253 0.3,1.576 0.675,3.152 1.351,4.577 0.525,1.051 1.275,2.102 2.326,2.627 1.2,0.6 2.776,0.6 3.976,0 2.626,-1.276 2.551,-4.428 2.626,-6.979 0.075,-1.951 0.3,-3.977 0.675,-5.853 0.375,-2.177 1.276,-4.203 1.501,-6.379 0.225,-2.401 0.45,-6.454 -2.401,-6.604 z m -6.527,28.667 0,0 c 1.05,0.75 3.601,1.125 4.201,4.127 0,0.15 0.15,0.375 0.45,0 0.525,-0.6 0.525,-3.227 -0.375,-4.127 -0.525,-0.526 -1.35,-0.601 -2.026,-0.676 -0.75,-0.075 -1.5,-0.3 -2.25,-0.45 -0.751,-0.15 -0.676,0.6 0,1.126 z m 0.6,5.778 0,0 c 0.6,0.9 1.575,1.2 2.326,0.675 0.675,-0.45 0.825,-1.501 0.3,-2.326 -0.525,-0.826 -1.576,-1.126 -2.251,-0.676 -0.75,0.451 -0.9,1.501 -0.375,2.327 z m 9.978,-13.583 0,0 c -1.575,2.552 -3.826,5.478 -4.051,8.555 -0.15,1.951 -0.075,4.127 -1.351,5.703 -0.375,0.45 -0.9,0.901 -1.425,1.201 -0.6,0.3 -1.351,0.45 -1.951,0.45 -0.6,0 -1.2,-0.075 -1.8,-0.225 -0.676,-0.225 -1.351,-0.45 -2.101,-0.6 -0.826,-0.075 -1.426,-0.075 -2.251,0.15 -0.45,0.075 -0.6,0.15 -1.125,0.225 -0.226,0.075 -0.976,0.225 -1.201,0.075 -0.525,-0.6 0.6,-1.201 0.975,-1.501 0.751,-0.525 1.051,-0.675 1.801,-1.276 0.9,-0.9 1.726,-1.876 2.026,-3.151 0.075,-0.301 0.075,-0.676 0.075,-1.051 0.075,-5.403 -8.928,-10.656 -8.778,-20.261 0,-3.377 1.8,-3.903 1.8,-2.027 0,2.252 0.751,4.653 1.576,6.679 0.225,0.45 0.825,0.601 0.675,-0.225 -0.225,-1.276 -0.75,-3.527 -0.675,-7.204 0,-0.901 0,-1.801 0.15,-2.702 0.15,-0.675 0.3,-1.425 0.45,-2.101 0.225,-0.6 0.45,-1.125 0.675,-1.651 0.225,-0.45 0.526,-0.825 0.826,-1.2 0.3,-0.376 0.6,-0.601 0.975,-0.901 0.225,-0.15 0.45,-0.3 0.525,-0.6 0.15,-0.375 -0.3,-0.525 -0.6,-0.676 -0.3,-0.075 -0.525,-0.225 -0.75,-0.375 -0.45,-0.15 -0.826,-0.375 -1.201,-0.6 -0.225,-0.15 -0.45,-0.225 -0.675,-0.375 -0.225,-0.15 -0.375,-0.376 0,-0.451 0.15,0 0.3,0.075 0.45,0.075 0.3,0 0.6,0 0.826,-0.075 0.375,-0.15 0.375,-0.45 0.375,-0.825 0,-0.375 0.225,-0.45 0.6,-0.375 0.3,0.075 0.6,0.375 0.9,0.6 0.15,0.225 0.375,0.375 0.675,0.525 0.451,0.226 1.051,0.15 1.576,0.075 0.3,0 0.675,-0.075 0.9,0.151 0.225,0.225 0.075,0.6 0,0.9 -0.15,0.225 -0.225,0.525 -0.375,0.75 -0.075,0.075 -0.15,0.226 -0.15,0.301 -0.225,0.45 1.426,0.825 1.651,0.9 0.75,0.225 1.575,0.375 2.401,0.45 0.825,0.075 1.65,0.075 2.401,-0.225 0.3,-0.15 0.6,-0.375 0.75,-0.6 0.15,-0.15 0.45,-0.6 0.15,-0.751 -0.375,-0.3 -0.75,-0.525 -1.126,-0.825 -0.225,-0.15 -0.45,-0.375 -0.675,-0.6 -0.075,-0.15 -0.15,-0.451 0.15,-0.451 0.375,0 0.826,0.075 1.201,0.075 0.3,0 0.6,-0.075 0.825,-0.225 0.375,-0.225 0.45,-0.825 0.9,-1.05 0.15,-0.075 0.3,-0.075 0.375,0 0.301,0.075 0.451,0.375 0.601,0.6 0.15,0.225 0.3,0.45 0.525,0.525 0.15,0.075 0.3,0.15 0.45,0.15 0.3,0 0.6,0 0.9,-0.075 0.225,0 0.526,-0.075 0.751,0.075 0.375,0.301 -0.676,0.901 -0.826,1.051 -0.525,0.3 -1.125,0.6 -1.275,1.201 -0.15,0.675 0.15,1.426 0.45,2.026 0.3,0.675 0.75,1.201 0.975,1.951 0.225,0.6 0.376,1.276 0.451,1.876 0.525,3.602 -0.301,7.504 -1.351,10.956 -0.15,0.375 -0.3,0.751 -0.45,1.201 -0.15,0.675 0.45,0.825 0.825,0.15 0.3,-0.6 2.326,-4.503 2.926,-7.354 0.375,-1.876 1.726,-1.951 1.651,1.351 0,4.727 -1.801,8.179 -3.977,11.631 z"
                         inkscape:connector-curvature="0" />
                    </g>
                  </g>
                  <g
                     id="g3683">
                    <g
                       clip-path="url(#clipPath3687)"
                       id="g3685">
                      <path
                         id="path3691"
                         style="fill:#000000;fill-opacity:1;fill-rule:nonzero;stroke:none"
                         d="m 41.49,70.596 0,0 c 0.3,-0.225 0.75,-0.075 1.051,0.3 0.225,0.45 0.225,0.9 -0.075,1.126 -0.376,0.225 -0.826,0.075 -1.051,-0.301 -0.3,-0.45 -0.3,-0.9 0.075,-1.125 z"
                         inkscape:connector-curvature="0" />
                    </g>
                  </g>
                  <g
                     id="g3693">
                    <g
                       clip-path="url(#clipPath3697)"
                       id="g3695">
                      <path
                         id="path3701"
                         style="fill:#000000;fill-opacity:1;fill-rule:nonzero;stroke:none"
                         d="m 2.4009,4.6336 0,0 c 0.9753,0 1.4255,0.2252 1.4255,0.9756 0,0.7504 -0.4502,0.9005 -1.3505,0.9005 l -0.4502,0 0,-1.8761 0.3752,0 z M 0,0.20615 l 0,0 0,8.02955 2.4009,0 c 1.0504,0 1.8006,0 2.4759,-0.3752 C 5.552,7.4102 6.0022,6.5847 6.0022,5.5341 6.0022,4.4836 5.552,3.6581 4.8768,3.2829 4.2766,2.9077 3.6763,2.9077 2.9261,2.9077 l -0.9004,0 0,-2.70155 -2.0257,0 z"
                         inkscape:connector-curvature="0" />
                    </g>
                  </g>
                  <g
                     id="g3703">
                    <g
                       clip-path="url(#clipPath3707)"
                       id="g3705">
                      <path
                         id="path3711"
                         style="fill:#000000;fill-opacity:1;fill-rule:nonzero;stroke:none"
                         d="m 7.7278,8.2357 0,0 4.9522,0 0,-1.726 -2.7764,0 0,-1.4258 2.6264,0 0,-1.726 -2.6264,0 0,-1.3507 2.7764,0 0,-1.80105 -4.9522,0 0,8.02955 z"
                         inkscape:connector-curvature="0" />
                    </g>
                  </g>
                  <g
                     id="g3713">
                    <g
                       clip-path="url(#clipPath3717)"
                       id="g3715">
                      <path
                         id="path3721"
                         style="fill:#000000;fill-opacity:1;fill-rule:nonzero;stroke:none"
                         d="m 14.78,8.2357 0,0 2.176,0 3.001,-4.1274 c 0.075,-0.075 0.3,-0.5253 0.751,-1.4258 -0.075,0.6754 -0.15,1.2007 -0.15,1.651 l 0,3.9022 2.1,0 0,-8.02955 -2.1,0 -3.002,4.20235 c -0.075,0.0751 -0.375,0.5253 -0.75,1.3508 0.075,-0.6004 0.15,-1.1257 0.15,-1.5759 l 0,-3.97725 -2.176,0 0,8.02955 z"
                         inkscape:connector-curvature="0" />
                    </g>
                  </g>
                  <g
                     id="g3723">
                    <g
                       clip-path="url(#clipPath3727)"
                       id="g3725">
                      <path
                         id="path3731"
                         style="fill:#000000;fill-opacity:1;fill-rule:nonzero;stroke:none"
                         d="m 28.66,4.8588 0,0 4.277,0 c 0,-0.1501 0,-0.3002 0,-0.4503 0,-2.7766 -1.576,-4.352439 -4.126,-4.352439 -1.276,0 -2.326,0.375209 -3.077,1.200639 -0.825,0.7505 -1.275,1.8761 -1.275,3.0017 0,2.4014 1.876,4.2024 4.352,4.2024 1.575,0 2.776,-0.6754 3.601,-1.8761 L 30.536,5.6842 c -0.45,0.6004 -1.05,0.9005 -1.725,0.9005 -1.276,0 -2.101,-0.9005 -2.101,-2.4013 0,-1.5759 0.75,-2.4764 2.101,-2.4764 1.125,0 1.875,0.6003 2.025,1.5008 l -2.176,0 0,1.651 z"
                         inkscape:connector-curvature="0" />
                    </g>
                  </g>
                  <g
                     id="g3733">
                    <g
                       clip-path="url(#clipPath3737)"
                       id="g3735">
                      <path
                         id="path3741"
                         style="fill:#000000;fill-opacity:1;fill-rule:nonzero;stroke:none"
                         d="m 36.913,8.2357 0,0 0,-4.3525 c 0,-1.4258 0.226,-2.0261 1.351,-2.0261 1.35,0 1.426,0.8254 1.426,2.5514 l 0,3.8272 2.175,0 0,-4.7277 c 0,-2.4764 -1.05,-3.451939 -3.601,-3.451939 -1.351,0 -2.251,0.300159 -2.851,0.975539 -0.675,0.6754 -0.675,1.6509 -0.675,2.9267 l 0,4.2774 2.175,0 z"
                         inkscape:connector-curvature="0" />
                    </g>
                  </g>
                  <g
                     id="g3743">
                    <g
                       clip-path="url(#clipPath3747)"
                       id="g3745">
                      <path
                         id="path3751"
                         style="fill:#000000;fill-opacity:1;fill-rule:nonzero;stroke:none"
                         d="m 44.266,8.2357 0,0 2.176,0 0,-8.02955 -2.176,0 0,8.02955 z"
                         inkscape:connector-curvature="0" />
                    </g>
                  </g>
                  <g
                     id="g3753">
                    <g
                       clip-path="url(#clipPath3757)"
                       id="g3755">
                      <path
                         id="path3761"
                         style="fill:#000000;fill-opacity:1;fill-rule:nonzero;stroke:none"
                         d="m 48.918,8.2357 0,0 2.101,0 3.001,-4.1274 c 0.075,-0.075 0.375,-0.5253 0.75,-1.4258 -0.075,0.6754 -0.075,1.2007 -0.075,1.651 l 0,3.9022 2.101,0 0,-8.02955 -2.101,0 -3.076,4.20235 c -0.075,0.0751 -0.3,0.5253 -0.75,1.3508 0.075,-0.6004 0.15,-1.1257 0.15,-1.5759 l 0,-3.97725 -2.101,0 0,8.02955 z"
                         inkscape:connector-curvature="0" />
                    </g>
                  </g>
                  <g
                     id="g3763">
                    <g
                       clip-path="url(#clipPath3767)"
                       id="g3765">
                      <path
                         id="path3771"
                         style="fill:#000000;fill-opacity:1;fill-rule:nonzero;stroke:none"
                         d="m 65.799,4.4836 0,0 c 0.9,0 1.351,0.3001 1.351,0.9755 0,0.8255 -0.376,1.1256 -1.276,1.1256 l -0.45,0 0,-2.1011 0.375,0 z m -2.476,3.7521 0,0 2.476,0 c 1.05,0 1.951,0 2.626,-0.5253 0.6,-0.4503 0.9,-1.1257 0.9,-1.9511 0,-1.2757 -0.6,-2.0262 -1.8,-2.3263 l 2.175,-3.22685 -2.475,0 -1.801,3.15175 0,-3.15175 -2.101,0 0,8.02955 z"
                         inkscape:connector-curvature="0" />
                    </g>
                  </g>
                  <g
                     id="g3773">
                    <g
                       clip-path="url(#clipPath3777)"
                       id="g3775">
                      <path
                         id="path3781"
                         style="fill:#000000;fill-opacity:1;fill-rule:nonzero;stroke:none"
                         d="m 75.778,3.2078 0,0 -0.826,2.7015 c -0.075,0.0751 -0.15,0.4503 -0.3,1.0506 -0.15,-0.6003 -0.225,-0.9755 -0.3,-1.0506 l -0.75,-2.7015 2.176,0 z m -2.476,5.0279 0,0 2.701,0 2.776,-8.02955 -2.176,0 -0.375,1.50085 -3.151,0 -0.375,-1.50085 -2.176,0 2.776,8.02955 z"
                         inkscape:connector-curvature="0" />
                    </g>
                  </g>
                  <g
                     id="g3783">
                    <g
                       clip-path="url(#clipPath3787)"
                       id="g3785">
                      <path
                         id="path3791"
                         style="fill:#000000;fill-opacity:1;fill-rule:nonzero;stroke:none"
                         d="m 79.979,8.2357 0,0 2.176,0 3.001,-4.1274 c 0.075,-0.075 0.375,-0.5253 0.75,-1.4258 -0.075,0.6754 -0.15,1.2007 -0.15,1.651 l 0,3.9022 2.101,0 0,-8.02955 -2.101,0 -3.001,4.20235 c -0.075,0.0751 -0.375,0.5253 -0.75,1.3508 0.075,-0.6004 0.15,-1.1257 0.15,-1.5759 l 0,-3.97725 -2.176,0 0,8.02955 z"
                         inkscape:connector-curvature="0" />
                    </g>
                  </g>
                  <g
                     id="g3793">
                    <g
                       clip-path="url(#clipPath3797)"
                       id="g3795">
                      <path
                         id="path3801"
                         style="fill:#000000;fill-opacity:1;fill-rule:nonzero;stroke:none"
                         d="m 92.584,2.0072 0,0 c 1.65,0 2.476,0.6753 2.476,2.2512 0,1.5759 -0.826,2.1762 -2.476,2.1762 l -0.375,0 0,-4.4274 0.375,0 z m -2.551,6.2285 0,0 1.951,0 c 1.5,0 2.701,0 3.751,-0.7505 0.975,-0.6753 1.501,-1.801 1.501,-3.2268 0,-1.4258 -0.526,-2.5514 -1.501,-3.30183 -1.05,-0.67538 -2.101,-0.75042 -3.451,-0.75042 l -2.251,0 0,8.02955 z"
                         inkscape:connector-curvature="0" />
                    </g>
                  </g>
                  <g
                     id="g3803">
                    <g
                       clip-path="url(#clipPath3807)"
                       id="g3805">
                      <path
                         id="path3811"
                         style="fill:#000000;fill-opacity:1;fill-rule:nonzero;stroke:none"
                         d="m 104.89,4.2584 0,0 c 0,1.2757 -0.83,2.3263 -2.1,2.3263 -1.2,0 -2.1,-1.0506 -2.1,-2.3263 0,-1.3507 0.82,-2.4013 2.1,-2.4013 1.27,0 2.1,1.0506 2.1,2.4013 z m 0.97,-3.0017 0,0 c -0.82,-0.82543 -1.95,-1.275682 -3.07,-1.275682 -0.98,0 -1.95,0.375202 -2.7,0.975552 -0.979,0.82543 -1.579,1.95113 -1.579,3.30183 0,1.1257 0.45,2.1762 1.275,2.9267 0.824,0.8254 1.874,1.2757 3.004,1.2757 1.12,0 2.25,-0.4503 3.07,-1.2757 0.83,-0.7505 1.28,-1.801 1.28,-2.9267 0,-1.2007 -0.45,-2.2512 -1.28,-3.0017 z"
                         inkscape:connector-curvature="0" />
                    </g>
                  </g>
                  <g
                     id="g3813">
                    <g
                       clip-path="url(#clipPath3817)"
                       id="g3815">
                      <path
                         id="path3821"
                         style="fill:#000000;fill-opacity:1;fill-rule:nonzero;stroke:none"
                         d="m 115.92,0.20615 0,0 -0.53,3.52695 c -0.07,0.4503 -0.07,1.0506 -0.15,1.801 -0.15,-0.7504 -0.3,-1.2006 -0.37,-1.5008 l -1.05,-3.82715 -1.5,0 -1.13,3.82715 c -0.07,0.3002 -0.22,0.7504 -0.3,1.5008 -0.07,-0.7504 -0.15,-1.3507 -0.22,-1.801 l -0.45,-3.52695 -2.03,0 1.2,8.02955 2.18,0 1.2,-4.1274 c 0.07,-0.2251 0.22,-0.6003 0.3,-1.0506 0.07,0.4503 0.15,0.7505 0.22,1.0506 l 1.2,4.1274 2.18,0 1.27,-8.02955 -2.02,0 z"
                         inkscape:connector-curvature="0" />
                    </g>
                  </g>
                  <g
                     id="g3823">
                    <g
                       clip-path="url(#clipPath3827)"
                       id="g3825">
                      <path
                         id="path3831"
                         style="fill:#000000;fill-opacity:1;fill-rule:nonzero;stroke:none"
                         d="m 123.95,8.2357 0,0 2.25,0 0,-3.0768 2.92,0 0,3.0768 2.18,0 0,-8.02955 -2.18,0 0,3.30185 -2.92,0 0,-3.30185 -2.25,0 0,8.02955 z"
                         inkscape:connector-curvature="0" />
                    </g>
                  </g>
                  <g
                     id="g3833">
                    <g
                       clip-path="url(#clipPath3837)"
                       id="g3835">
                      <path
                         id="path3841"
                         style="fill:#000000;fill-opacity:1;fill-rule:nonzero;stroke:none"
                         d="m 139.48,4.2584 0,0 c 0,1.2757 -0.83,2.3263 -2.1,2.3263 -1.21,0 -2.11,-1.0506 -2.11,-2.3263 0,-1.3507 0.83,-2.4013 2.11,-2.4013 1.27,0 2.1,1.0506 2.1,2.4013 z m 0.97,-3.0017 0,0 c -0.82,-0.82543 -1.95,-1.275682 -3.07,-1.275682 -0.98,0 -1.96,0.375202 -2.71,0.975552 -1.05,0.82543 -1.57,1.95113 -1.57,3.30183 0,1.1257 0.45,2.1762 1.27,2.9267 0.83,0.8254 1.88,1.2757 3.01,1.2757 1.12,0 2.25,-0.4503 3.07,-1.2757 0.83,-0.7505 1.2,-1.801 1.2,-2.9267 0,-1.2007 -0.37,-2.2512 -1.2,-3.0017 z"
                         inkscape:connector-curvature="0" />
                    </g>
                  </g>
                  <g
                     id="g3843">
                    <g
                       clip-path="url(#clipPath3847)"
                       id="g3845">
                      <path
                         id="path3851"
                         style="fill:#000000;fill-opacity:1;fill-rule:nonzero;stroke:none"
                         d="m 145.63,8.2357 0,0 0,-4.3525 c 0,-1.4258 0.3,-2.0261 1.42,-2.0261 1.35,0 1.35,0.8254 1.35,2.5514 l 0,3.8272 2.18,0 0,-4.7277 c 0,-2.4764 -0.98,-3.451939 -3.53,-3.451939 -1.35,0 -2.32,0.300159 -2.92,0.975539 -0.6,0.6754 -0.68,1.6509 -0.68,2.9267 l 0,4.2774 2.18,0 z"
                         inkscape:connector-curvature="0" />
                    </g>
                  </g>
                  <g
                     id="g3853">
                    <g
                       clip-path="url(#clipPath3857)"
                       id="g3855">
                      <path
                         id="path3861"
                         style="fill:#000000;fill-opacity:1;fill-rule:nonzero;stroke:none"
                         d="m 155.01,1.707 0,0 c 0.6,0 0.97,0.3752 0.97,0.8255 0,0.6753 -0.45,0.8254 -1.35,1.1256 -1.42,0.3752 -2.17,0.9005 -2.17,2.1762 0,1.5009 1.12,2.6265 2.77,2.6265 0.9,0 1.73,-0.2251 2.4,-0.7504 l -0.67,-1.5759 c -0.53,0.4502 -1.05,0.6754 -1.58,0.6754 -0.52,0 -0.82,-0.3002 -0.82,-0.6754 0,-0.6004 0.52,-0.6754 1.27,-0.9005 1.43,-0.3752 2.18,-0.9005 2.18,-2.4014 0,-1.6509 -1.2,-2.851582 -3.08,-2.851582 -1.12,0 -1.95,0.375202 -2.85,1.200682 l 0.98,1.6509 c 0.67,-0.7504 1.27,-1.1256 1.95,-1.1256 z"
                         inkscape:connector-curvature="0" />
                    </g>
                  </g>
                  <g
                     id="g3863">
                    <g
                       clip-path="url(#clipPath3867)"
                       id="g3865">
                      <path
                         id="path3871"
                         style="fill:#000000;fill-opacity:1;fill-rule:nonzero;stroke:none"
                         d="m 159.88,8.2357 0,0 4.96,0 0,-1.726 -2.78,0 0,-1.4258 2.63,0 0,-1.726 -2.63,0 0,-1.3507 2.78,0 0,-1.80105 -4.96,0 0,8.02955 z"
                         inkscape:connector-curvature="0" />
                    </g>
                  </g>
                  <g
                     id="g3873">
                    <g
                       clip-path="url(#clipPath3877)"
                       id="g3875">
                      <path
                         id="path3881"
                         style="fill:none;stroke:#000000;stroke-width:0.97535998;stroke-linecap:butt;stroke-linejoin:miter;stroke-miterlimit:10;stroke-opacity:1;stroke-dasharray:none"
                         d="m 0.22508,16.64 0,0 164.31492,0"
                         inkscape:connector-curvature="0" />
                    </g>
                  </g>
                </g>
              </g>
            </g>
          </g>
        </g>
      </g>
    </g>
  </g>
</svg>
